HIERARCHY
ROOT root
{
	OFFSET	0	13.1	24.9
	CHANNELS 6  Xposition Yposition Zposition Xrotation Yrotation Zrotation
	JOINT spine_1
	{
		OFFSET	0	9.99999	0
		CHANNELS 3  Xrotation Yrotation Zrotation
		JOINT spine_2
		{
			OFFSET	0	112	-10
			CHANNELS 3  Xrotation Yrotation Zrotation
			JOINT spine_3
			{
				OFFSET	0	206.5	19.3
				CHANNELS 3  Xrotation Yrotation Zrotation
				JOINT spine_4
				{
					OFFSET	0	110.4	14.6
					CHANNELS 3  Xrotation Yrotation Zrotation
					JOINT neck_1
					{
						OFFSET	0	71.8	-50.3
						CHANNELS 3  Xrotation Yrotation Zrotation
						JOINT neck_2
						{
							OFFSET	0	86.2	-25.8
							CHANNELS 3  Xrotation Yrotation Zrotation
							JOINT head_ee
							{
								OFFSET	0	179.8	-8.7
								CHANNELS 3  Xrotation Yrotation Zrotation
								End Site
								{
									OFFSET	1	0	0
								}
							}
						}
					}
					JOINT left_clavicle
					{
						OFFSET	-43.2	22.4	-70.8
						CHANNELS 3  Xrotation Yrotation Zrotation
						JOINT left_shoulder
						{
							OFFSET	-93.9	-5.79999	48.7
							CHANNELS 3  Xrotation Yrotation Zrotation
							JOINT left_elbow
							{
								OFFSET	-291.4	-30.8	15.2
								CHANNELS 3  Xrotation Yrotation Zrotation
								JOINT left_lowarm_twist
								{
									OFFSET	-110.7	-3.89999	13.6
									CHANNELS 3  Xrotation Yrotation Zrotation
									JOINT left_hand
									{
										OFFSET	-110.7	-3.89999	13.6
										CHANNELS 3  Xrotation Yrotation Zrotation
										JOINT left_ee
										{
											OFFSET	-80.8	-5.10001	12.1
											CHANNELS 3  Xrotation Yrotation Zrotation
											End Site
											{
												OFFSET	1	0	0
											}
										}
									}
								}
							}
						}
					}
					JOINT right_clavicle
					{
						OFFSET	43.2	22.4	-70.8
						CHANNELS 3  Xrotation Yrotation Zrotation
						JOINT right_shoulder
						{
							OFFSET	93.9	-5.79999	48.7
							CHANNELS 3  Xrotation Yrotation Zrotation
							JOINT right_elbow
							{
								OFFSET	291.4	-30.8	15.2
								CHANNELS 3  Xrotation Yrotation Zrotation
								JOINT right_lowarm_twist
								{
									OFFSET	110.7	-3.89999	13.6
									CHANNELS 3  Xrotation Yrotation Zrotation
									JOINT right_hand
									{
										OFFSET	110.7	-3.89999	13.6
										CHANNELS 3  Xrotation Yrotation Zrotation
										JOINT right_ee
										{
											OFFSET	80.8	-5.10001	12.1
											CHANNELS 3  Xrotation Yrotation Zrotation
											End Site
											{
												OFFSET	1	0	0
											}
										}
									}
								}
							}
						}
					}
				}
			}
		}
	}
	JOINT left_hip
	{
		OFFSET	-82.8	-127.5	0.300001
		CHANNELS 3  Xrotation Yrotation Zrotation
		JOINT left_knee
		{
			OFFSET	-28.2	-396.7	2.2
			CHANNELS 3  Xrotation Yrotation Zrotation
			JOINT left_ankle
			{
				OFFSET	-11.7	-411.3	35.4
				CHANNELS 3  Xrotation Yrotation Zrotation
				JOINT left_toes
				{
					OFFSET	0	-60	-88.6
					CHANNELS 3  Xrotation Yrotation Zrotation
					JOINT left_foot_ee
					{
						OFFSET	-22.5	-16.5	-42.2
						CHANNELS 3  Xrotation Yrotation Zrotation
						End Site
						{
							OFFSET	1	0	0
						}
					}
				}
			}
		}
	}
	JOINT right_hip
	{
		OFFSET	82.8	-127.5	0.300001
		CHANNELS 3  Xrotation Yrotation Zrotation
		JOINT right_knee
		{
			OFFSET	28.2	-396.7	2.2
			CHANNELS 3  Xrotation Yrotation Zrotation
			JOINT right_ankle
			{
				OFFSET	11.7	-411.3	35.4
				CHANNELS 3  Xrotation Yrotation Zrotation
				JOINT right_toes
				{
					OFFSET	0	-60	-88.6
					CHANNELS 3  Xrotation Yrotation Zrotation
					JOINT right_foot_ee
					{
						OFFSET	22.5	-16.5	-42.2
						CHANNELS 3  Xrotation Yrotation Zrotation
						End Site
						{
							OFFSET	1	0	0
						}
					}
				}
			}
		}
	}
}
MOTION
Frames: 16
Frame Time: 0.02
960.81990206 726.745 -1452.94861144 117.940787949 77.9945500949 -119.752950725 -2.3185 0.779974 0.919276 -2.31832 0.719901 0.967042 -2.30537 0.456153 1.11594 -2.30656 0.626661 1.02991 -1.26765 14.7145 4.05096 -0.93819 23.2735 6.02534 -0.0 0.0 -0.0 -3.39891 24.4609 -1.73429 -9.69763 -0.780158 80.7328 0.746673 -20.2984 0.133666 -37.4499 -2.68414 3.87156 -3.22382 20.7773 -10.7254 -0.0 0.0 -0.0 14.1172 26.6522 -28.1951 -1.66498 29.0742 -61.7005 0.219814 6.21456 -0.0119327 -62.724 5.62333 -5.17787 -12.1652 -33.3275 66.3374 0.0 0.0 0.0 -6.67371 4.17741 -4.06896 -39.6223 -0.442913 5.94535 36.7589 -8.34415 -4.69884 -39.998 0.0 0.0 -0.0 0.0 -0.0 -6.97954 31.1204 -7.20779 -11.0099 -0.29445 -1.66141 41.2232 -15.3585 5.04657 -26.4489 0.0 0.0 0.0 0.0 0.0 
950.567497119 727.311 -1446.91880277 121.506801461 76.7582183093 -123.462799514 -2.51249 0.754483 0.858301 -2.51235 0.698341 0.904568 -2.5006 0.447255 1.0516 -2.50163 0.607716 0.96778 -2.68297 14.1985 4.47715 -2.43862 22.3107 6.62613 -0.0 0.0 -0.0 -3.52901 24.3489 -1.93373 -9.77316 1.11837 81.2052 0.72579 -19.7753 0.126511 -37.1059 -2.64876 3.84515 -3.24024 21.1388 -10.618 -0.0 0.0 -0.0 14.1845 27.3591 -28.2588 -0.0947524 29.8178 -60.4288 0.235364 6.65038 -0.0136748 -62.9659 5.65374 -5.1839 -12.1554 -33.2712 66.385 0.0 0.0 0.0 -2.30782 4.1815 -4.02798 -38.8171 -0.393233 5.83198 37.1061 -8.28726 -4.73013 -39.8867 0.0 0.0 -0.0 0.0 -0.0 -8.31238 30.4042 -7.0709 -10.3081 -0.28526 -1.55411 41.576 -16.2649 5.09281 -26.3796 0.0 0.0 0.0 0.0 0.0 
942.775050915 721.48 -1449.73906422 125.767316606 75.9217517114 -127.556859506 -2.59934 0.642377 0.866143 -2.59912 0.585963 0.905261 -2.58912 0.336743 1.02442 -2.59025 0.494298 0.958391 -4.80289 13.7575 4.56022 -4.66028 21.8839 6.97635 -0.0 0.0 -0.0 -3.40969 24.0761 -1.83007 -10.2454 2.53066 80.5981 0.683405 -18.703 0.112544 -36.713 -2.60857 3.81473 -3.08549 21.108 -9.70951 -0.0 0.0 -0.0 14.3346 26.1484 -28.77 1.91782 30.8335 -58.4799 0.255822 7.22258 -0.0161456 -61.1432 5.42526 -5.13535 -12.124 -33.3639 65.4661 0.0 0.0 0.0 1.14091 3.94398 -4.27699 -36.4152 -0.254597 5.4899 39.5849 -3.57777 -4.876 -38.9694 0.0 0.0 -0.0 0.0 -0.0 -8.9437 28.9462 -7.58822 -10.0257 -0.281192 -1.51097 41.7603 -15.3967 5.0938 -26.1303 0.0 0.0 0.0 0.0 0.0 
936.928480309 719.355 -1439.01869061 134.923379384 74.372349716 -136.839547381 -2.65647 0.538163 0.967279 -2.65608 0.475525 0.999559 -2.64691 0.204857 1.08778 -2.64836 0.374071 1.04178 -5.98771 13.1497 4.28573 -5.9082 21.1931 6.78298 -0.0 0.0 -0.0 -3.28369 23.9342 -1.68822 -10.2179 3.71315 79.8567 0.648682 -17.8143 0.101665 -36.3967 -2.57636 3.79004 -3.0731 21.4444 -9.44758 -0.0 0.0 -0.0 14.3836 25.6405 -28.9489 3.5615 31.8323 -57.0018 0.278783 7.86305 -0.0191597 -61.7697 5.50362 -5.15286 -12.0448 -32.93 65.7432 0.0 0.0 0.0 3.20418 4.31269 -4.96353 -34.826 -0.170825 5.26057 39.6107 -2.86282 -4.8695 -39.157 0.0 0.0 -0.0 0.0 -0.0 -8.94075 28.0959 -7.79189 -10.1799 -0.28344 -1.53452 41.9851 -15.0439 5.10733 -26.1629 0.0 0.0 0.0 0.0 0.0 
929.057763384 716.391 -1434.71221312 135.455563348 74.134601104 -137.652999376 -2.77944 0.587427 1.03644 -2.779 0.520289 1.07172 -2.76823 0.227271 1.16944 -2.7699 0.409099 1.11888 -7.42448 12.953 4.30262 -7.40832 21.0767 6.99796 -0.0 0.0 -0.0 -2.96846 23.7066 -1.30382 -10.1863 4.60027 78.893 0.565825 -15.658 0.0778005 -35.6201 -2.49786 3.72868 -2.88886 21.7541 -8.18459 -0.0 0.0 -0.0 14.3598 25.2077 -28.9451 5.51847 32.9671 -55.1896 0.299629 8.44283 -0.0221161 -61.3642 5.45288 -5.14162 -12.0311 -32.951 65.4252 0.0 0.0 0.0 6.67804 3.58219 -6.62133 -32.4042 -0.0555032 4.90692 37.1585 -0.482182 -4.62669 -39.0789 0.0 0.0 -0.0 0.0 -0.0 -11.8037 27.2863 -6.83442 -8.09518 -0.247689 -1.21665 42.3611 -14.6687 5.13335 -24.865 0.0 0.0 0.0 0.0 0.0 
921.179543219 718.514 -1427.79390589 138.920155379 73.8070662266 -140.355808427 -3.05168 0.419475 0.660831 -3.05152 0.376575 0.686182 -3.04655 0.18379 0.760836 -3.04723 0.30164 0.722265 -8.44351 12.7892 4.48711 -8.46712 20.8186 7.3152 -0.0 0.0 -0.0 -2.42045 24.2807 -0.451116 -10.1923 5.45332 78.2564 0.539425 -14.9609 0.0708302 -34.839 -2.41976 3.6659 -2.67218 21.5685 -7.00636 -0.0 0.0 -0.0 14.2033 24.5768 -28.649 7.22586 33.9984 -54.1102 0.360297 10.1198 -0.0319017 -61.0798 5.41734 -5.13353 -12.2524 -33.7192 66.3396 0.0 0.0 0.0 8.55196 3.25782 -7.98579 -27.4923 0.131917 4.17665 32.9208 0.662708 -4.20905 -39.0261 0.0 0.0 -0.0 0.0 -0.0 -13.1351 25.1428 -6.16691 -3.29469 -0.121562 -0.490949 41.2602 -15.2176 5.04753 -25.1887 0.0 0.0 0.0 0.0 0.0 
922.242369671 718.514 -1418.59404395 141.428183077 72.9079459916 -142.97337178 -3.05168 0.419475 0.660831 -3.05152 0.376575 0.686182 -3.04655 0.18379 0.760836 -3.04723 0.30164 0.722265 -8.44351 12.7892 4.48711 -8.46712 20.8186 7.3152 -0.0 0.0 -0.0 -2.42045 24.2807 -0.451116 -10.1923 5.45332 78.2564 0.539425 -14.9609 0.0708302 -34.839 -2.41976 3.6659 -2.67218 21.5685 -7.00636 -0.0 0.0 -0.0 14.2033 24.5768 -28.649 7.22586 33.9984 -54.1102 0.360297 10.1198 -0.0319017 -61.0798 5.41734 -5.13353 -12.2524 -33.7192 66.3396 0.0 0.0 0.0 8.55196 3.25782 -7.98579 -27.4923 0.131917 4.17665 32.9208 0.662708 -4.20905 -39.0261 0.0 0.0 -0.0 0.0 -0.0 -13.1351 25.1428 -6.16691 -3.29469 -0.121562 -0.490949 41.2602 -15.2176 5.04753 -25.1887 0.0 0.0 0.0 0.0 0.0 
916.088448868 717.104 -1414.59767417 140.796326075 72.8393097561 -142.29098402 -3.09425 0.301066 0.613218 -3.09408 0.261436 0.631131 -3.09083 0.0865463 0.67763 -3.09142 0.192477 0.655459 -9.48637 12.6583 4.96905 -9.53918 20.4209 7.9291 -0.0 0.0 -0.0 -2.10504 24.7585 0.0556527 -10.2693 6.05194 78.1495 0.512294 -14.2398 0.0639908 -34.1961 -2.35612 3.61343 -2.42521 21.1835 -5.7513 -0.0 0.0 -0.0 14.1082 24.4472 -28.4394 8.50777 34.8277 -53.4201 0.463951 12.9436 -0.0526295 -61.3633 5.45277 -5.1416 -12.3791 -33.8843 68.0547 0.0 0.0 0.0 10.9718 2.65891 -8.56046 -23.0923 0.246115 3.51121 27.8589 0.440988 -3.67442 -39.1213 0.0 0.0 -0.0 0.0 -0.0 -13.6059 23.3329 -5.86537 -3.00268 -0.111932 -0.447168 42.4067 -14.3807 5.13275 -24.7475 0.0 0.0 0.0 0.0 0.0 
908.822987073 716.847 -1416.30104129 138.630260342 73.6274206577 -139.726455829 -3.34122 0.386836 0.420294 -3.34119 0.359308 0.444058 -3.33821 0.227849 0.523807 -3.33846 0.307714 0.48125 -11.4366 12.2065 4.92926 -11.5646 19.9171 8.1075 -0.0 0.0 -0.0 -1.53512 24.9673 0.846428 -9.89878 6.1002 77.6949 0.489407 -13.6279 0.0584795 -34.2686 -2.36327 3.61939 -2.31275 21.055 -5.15355 -0.0 0.0 -0.0 13.8976 24.0698 -27.9851 9.92293 35.1417 -52.4076 0.494298 13.759 -0.0596374 -60.2967 5.31967 -5.11032 -12.2612 -33.7186 66.5027 0.0 0.0 0.0 11.8277 0.847227 -8.79126 -18.904 0.30707 2.87159 27.3427 -0.223555 -3.62162 -38.9947 0.0 0.0 -0.0 0.0 -0.0 -14.3768 20.931 -6.11537 -1.28801 -0.0508876 -0.191109 41.746 -15.4178 5.09291 -24.6069 0.0 0.0 0.0 0.0 0.0 
909.629873095 716.847 -1410.27128613 140.252635944 73.0602511261 -141.419853315 -3.34122 0.386836 0.420294 -3.34119 0.359308 0.444058 -3.33821 0.227849 0.523807 -3.33846 0.307714 0.48125 -11.4366 12.2065 4.92926 -11.5646 19.9171 8.1075 -0.0 0.0 -0.0 -1.53512 24.9673 0.846428 -9.89878 6.1002 77.6949 0.489407 -13.6279 0.0584795 -34.2686 -2.36327 3.61939 -2.31275 21.055 -5.15355 -0.0 0.0 -0.0 13.8976 24.0698 -27.9851 9.92293 35.1417 -52.4076 0.494298 13.759 -0.0596374 -60.2967 5.31967 -5.11032 -12.2612 -33.7186 66.5027 0.0 0.0 0.0 11.8277 0.847227 -8.79126 -18.904 0.30707 2.87159 27.3427 -0.223555 -3.62162 -38.9947 0.0 0.0 -0.0 0.0 -0.0 -14.3768 20.931 -6.11537 -1.28801 -0.0508876 -0.191109 41.746 -15.4178 5.09291 -24.6069 0.0 0.0 0.0 0.0 0.0 
879.294859806 710.584 -1402.62319006 141.215385399 72.5385046754 -141.445035966 -3.28974 0.226606 0.150988 -3.28975 0.216539 0.165102 -3.28911 0.16484 0.216739 -3.28912 0.197001 0.187986 -12.6754 11.8669 3.9461 -12.8858 20.081 7.29852 -0.0 0.0 -0.0 -0.856826 25.0855 1.75985 -11.918 6.7846 76.0808 0.475887 -13.2649 0.0553357 -33.1513 -2.25398 3.52667 -1.56707 20.6483 -0.955315 -0.0 0.0 -0.0 13.6909 22.0509 -27.6976 10.5364 35.6351 -52.5369 0.721088 19.657 -0.124925 -59.081 5.16868 -5.07165 -12.2956 -33.7252 67.117 0.0 0.0 0.0 12.8385 -0.345154 -9.80381 -4.34356 0.154309 0.648586 16.2736 -6.54101 -2.3272 -38.9536 0.0 0.0 -0.0 0.0 -0.0 -17.0432 17.3091 -6.32519 -2.17376 -0.0833795 -0.323159 41.9779 -11.4643 5.05943 -19.5037 0.0 0.0 0.0 0.0 0.0 
880.114904452 710.584 -1397.25983858 142.423819976 72.0478554675 -142.713550411 -3.28974 0.226606 0.150988 -3.28975 0.216539 0.165102 -3.28911 0.16484 0.216739 -3.28912 0.197001 0.187986 -12.6754 11.8669 3.9461 -12.8858 20.081 7.29852 -0.0 0.0 -0.0 -0.856826 25.0855 1.75985 -11.918 6.7846 76.0808 0.475887 -13.2649 0.0553357 -33.1513 -2.25398 3.52667 -1.56707 20.6483 -0.955315 -0.0 0.0 -0.0 13.6909 22.0509 -27.6976 10.5364 35.6351 -52.5369 0.721088 19.657 -0.124925 -59.081 5.16868 -5.07165 -12.2956 -33.7252 67.117 0.0 0.0 0.0 12.8385 -0.345154 -9.80381 -4.34356 0.154309 0.648586 16.2736 -6.54101 -2.3272 -38.9536 0.0 0.0 -0.0 0.0 -0.0 -17.0432 17.3091 -6.32519 -2.17376 -0.0833795 -0.323159 41.9779 -11.4643 5.05943 -19.5037 0.0 0.0 0.0 0.0 0.0 
881.059642596 710.584 -1391.51579499 143.64717177 71.5127706858 -144.001453259 -3.28974 0.226606 0.150988 -3.28975 0.216539 0.165102 -3.28911 0.16484 0.216739 -3.28912 0.197001 0.187986 -12.6754 11.8669 3.9461 -12.8858 20.081 7.29852 -0.0 0.0 -0.0 -0.856826 25.0855 1.75985 -11.918 6.7846 76.0808 0.475887 -13.2649 0.0553357 -33.1513 -2.25398 3.52667 -1.56707 20.6483 -0.955315 -0.0 0.0 -0.0 13.6909 22.0509 -27.6976 10.5364 35.6351 -52.5369 0.721088 19.657 -0.124925 -59.081 5.16868 -5.07165 -12.2956 -33.7252 67.117 0.0 0.0 0.0 12.8385 -0.345154 -9.80381 -4.34356 0.154309 0.648586 16.2736 -6.54101 -2.3272 -38.9536 0.0 0.0 -0.0 0.0 -0.0 -17.0432 17.3091 -6.32519 -2.17376 -0.0833795 -0.323159 41.9779 -11.4643 5.05943 -19.5037 0.0 0.0 0.0 0.0 0.0 
882.590152417 710.584 -1382.98669471 145.338947761 70.7012139585 -145.789503872 -3.28974 0.226606 0.150988 -3.28975 0.216539 0.165102 -3.28911 0.16484 0.216739 -3.28912 0.197001 0.187986 -12.6754 11.8669 3.9461 -12.8858 20.081 7.29852 -0.0 0.0 -0.0 -0.856826 25.0855 1.75985 -11.918 6.7846 76.0808 0.475887 -13.2649 0.0553357 -33.1513 -2.25398 3.52667 -1.56707 20.6483 -0.955315 -0.0 0.0 -0.0 13.6909 22.0509 -27.6976 10.5364 35.6351 -52.5369 0.721088 19.657 -0.124925 -59.081 5.16868 -5.07165 -12.2956 -33.7252 67.117 0.0 0.0 0.0 12.8385 -0.345154 -9.80381 -4.34356 0.154309 0.648586 16.2736 -6.54101 -2.3272 -38.9536 0.0 0.0 -0.0 0.0 -0.0 -17.0432 17.3091 -6.32519 -2.17376 -0.0833795 -0.323159 41.9779 -11.4643 5.05943 -19.5037 0.0 0.0 0.0 0.0 0.0 
739.303993123 690.752 -1336.91191281 144.87264111 76.0540014434 -141.100124431 -2.79404 0.192383 -0.542762 -2.79391 0.22653 -0.52942 -2.79596 0.355281 -0.453187 -2.79614 0.27925 -0.503608 -10.1118 14.0047 8.34744 -10.0706 20.8044 11.619 -0.0 0.0 -0.0 2.23024 24.7763 5.82746 -12.8418 3.92338 72.6375 0.707831 -19.3227 0.120502 -25.9674 -1.59688 2.88199 1.62062 25.0659 19.4706 -0.0 0.0 -0.0 12.2585 14.2024 -24.814 8.56397 31.5051 -59.1042 1.11777 28.9729 -0.288801 -58.9244 5.14929 -5.06644 -12.1226 -32.6845 68.2047 0.0 0.0 0.0 17.4435 -3.08489 -14.3099 -8.04362 0.246659 1.2088 5.74821 -23.3366 -0.971134 -30.2747 0.0 0.0 -0.0 0.0 -0.0 -23.0491 8.55491 -6.69152 -6.9257 -0.222576 -1.03894 40.9441 -7.76389 4.94488 -11.4561 0.0 0.0 0.0 0.0 0.0 
739.601235361 690.752 -1335.55899504 145.154520388 75.9536082135 -141.3906281 -2.79404 0.192383 -0.542762 -2.79391 0.22653 -0.52942 -2.79596 0.355281 -0.453187 -2.79614 0.27925 -0.503608 -10.1118 14.0047 8.34744 -10.0706 20.8044 11.619 -0.0 0.0 -0.0 2.23024 24.7763 5.82746 -12.8418 3.92338 72.6375 0.707831 -19.3227 0.120502 -25.9674 -1.59688 2.88199 1.62062 25.0659 19.4706 -0.0 0.0 -0.0 12.2585 14.2024 -24.814 8.56397 31.5051 -59.1042 1.11777 28.9729 -0.288801 -58.9244 5.14929 -5.06644 -12.1226 -32.6845 68.2047 0.0 0.0 0.0 17.4435 -3.08489 -14.3099 -8.04362 0.246659 1.2088 5.74821 -23.3366 -0.971134 -30.2747 0.0 0.0 -0.0 0.0 -0.0 -23.0491 8.55491 -6.69152 -6.9257 -0.222576 -1.03894 40.9441 -7.76389 4.94488 -11.4561 0.0 0.0 0.0 0.0 0.0 
